<?xml version="1.0" ?>
<!-- Uploaded to: SVG Repo, www.svgrepo.com, Generator: SVG Repo Mixer Tools -->
<svg width="800px" height="800px" viewBox="0 0 24 24" version="1.1" xml:space="preserve" xmlns="http://www.w3.org/2000/svg" xmlns:xlink="http://www.w3.org/1999/xlink">
<style type="text/css">
	.st0{opacity:0.2;fill:none;stroke:#000000;stroke-width:5.000000e-02;stroke-miterlimit:10;}
</style>
<g id="Layer_Grid"/>
<g id="Layer_2">
<ellipse cx="10.4" cy="13.4" rx="3" ry="1" transform="matrix(0.7071 -0.7071 0.7071 0.7071 -6.4125 11.2925)"/>
<path d="M19,15.5c-0.7-0.7-1.7-0.8-2.5-0.5l-0.9-0.9C16.9,12.6,18,11,19,9.2C19,9.1,19,9.1,19.1,9L20,5.2c0.1-0.3,0-0.7-0.3-0.9   C19.5,4,19.1,3.9,18.8,4L15,4.9c-0.1,0-0.2,0-0.2,0.1C13,6,11.4,7.1,9.9,8.5L8.8,7.3c0.1-0.3,0.2-0.6,0.2-0.8   c0-0.6-0.2-1.2-0.7-1.7L6.5,3C5.5,2.1,4,2.1,3.1,3c0,0-0.1,0.1-0.1,0.1C2.2,4.1,2.2,5.5,3.1,6.4l1.8,1.8c0.4,0.4,1,0.7,1.7,0.7   c0.3,0,0.5-0.1,0.8-0.1l1.2,1.2C7.1,11.4,6,13,5,14.8C5,14.9,5,14.9,4.9,15L4,18.8c-0.1,0.3,0,0.7,0.3,0.9C4.5,19.9,4.7,20,5,20   c0.1,0,0.2,0,0.2,0L9,19.1c0.1,0,0.2,0,0.2-0.1c1.8-0.9,3.4-2.1,4.9-3.5l1,1c-0.3,0.8-0.1,1.8,0.6,2.5l1.8,1.8   c0.4,0.4,1,0.7,1.7,0.7s1.2-0.2,1.7-0.7c0.5-0.5,0.7-1,0.7-1.7s-0.2-1.2-0.7-1.7L19,15.5z M6.8,6.8c-0.1,0.1-0.4,0.1-0.5,0L4.5,5   c-0.1-0.1-0.1-0.4,0-0.5c0,0,0,0,0-0.1c0.1-0.1,0.4-0.1,0.5,0l1.8,1.8C7,6.4,7,6.6,6.8,6.8z M13.4,13.4c-1.5,1.5-3.2,2.8-5,3.7   l-2,0.5l0.5-2c1-1.8,2.2-3.5,3.7-5c1.5-1.5,3.2-2.8,5-3.7l2-0.5l-0.5,2C16.1,10.2,14.9,11.9,13.4,13.4z M19.3,19.3   c-0.1,0.1-0.4,0.1-0.5,0L17,17.5c-0.1-0.1-0.1-0.4,0-0.5c0,0,0,0,0-0.1c0.1-0.1,0.4-0.1,0.5,0l1.8,1.8   C19.5,18.9,19.5,19.1,19.3,19.3z"/>
</g>
</svg>